<svg xmlns="http://www.w3.org/2000/svg" xmlns:xlink="http://www.w3.org/1999/xlink" viewBox="0 0 431.9 233.9"><defs><radialGradient id="a" cx="1744.9" cy="-75" r="53.7" gradientTransform="rotate(180 908.5 -11.5)" gradientUnits="userSpaceOnUse"><stop offset="0" stop-color="#f69679"/><stop offset="1" stop-color="#ed1c24"/></radialGradient><radialGradient id="b" cx="1744.9" cy="-75" r="53.7" xlink:href="#a"/><radialGradient id="c" cx="1744.9" cy="-75" r="53.7" xlink:href="#a"/><radialGradient id="d" cx="1744.9" cy="-75" r="53.7" xlink:href="#a"/></defs><g data-name="Layer 2"><g data-name="chosen finb"><path d="M14.3 0A14.3 14.3 0 0 0 0 14.3v124.3a14.3 14.3 0 0 0 14.3 14.3h170.4a14.3 14.3 0 0 0 14.3-14.3V14.3A14.3 14.3 0 0 0 184.7 0z" fill="#fff"/><path d="M62.6 51.7a9.4 9.4 0 0 1 7.1-8.8l5.7-35.7H14.3a7.1 7.1 0 0 0-7.1 7.1v59.5zM28 28.9h7.9V21H43v7.9h7.9V36H43v7.9h-7.1V36H28z" fill="url(#a)"/><path d="M164.4 113.7a4.2 4.2 0 0 0 2.4-2.1 5.2 5.2 0 0 0 .7-2.5 4 4 0 0 0-2.1-3.9 16.5 16.5 0 0 0-6.3-1h-6.3v10h7.1a16.4 16.4 0 0 0 4.5-.5z" fill="url(#b)"/><path d="M167 121.1c-1.4-.9-3.4-1.3-6.1-1.3h-8.1V131h8.4c5.3 0 7.9-1.9 7.9-5.7a4.5 4.5 0 0 0-2.1-4.2z" fill="url(#c)"/><path d="M184.7 7.2H83.3l-5.9 36.9a9.5 9.5 0 0 1 4.3 8v.5l44.9 23.2a9.4 9.4 0 0 1 5.9-2.1 9.6 9.6 0 1 1-9.6 9.6v-.6L78.1 59.5a9.5 9.5 0 0 1-6 2.1 9.6 9.6 0 0 1-6.7-2.7L7.1 82.2v56.4a7.1 7.1 0 0 0 7.1 7.1h170.4a7.1 7.1 0 0 0 7.1-7.1V14.3a7 7 0 0 0-7-7.1zm-64.8 124.4a12 12 0 0 1-5.3 4.3 20.3 20.3 0 0 1-8.2 1.6 19 19 0 0 1-9.4-2.1 13 13 0 0 1-4.3-4.1 9.2 9.2 0 0 1-1.6-5 3.3 3.3 0 0 1 1-2.4 3.3 3.3 0 0 1 2.5-1 3.2 3.2 0 0 1 2.1.8 5.8 5.8 0 0 1 1.5 2.3 18 18 0 0 0 1.6 3.1 6.8 6.8 0 0 0 2.4 2 9.3 9.3 0 0 0 4.1.8 8.9 8.9 0 0 0 5.6-1.6 5 5 0 0 0 2.2-4 4.1 4.1 0 0 0-1.2-3.1 7.5 7.5 0 0 0-3-1.8 41.3 41.3 0 0 0-4.9-1.3 29.2 29.2 0 0 1-6.9-2.3 11 11 0 0 1-4.4-3.5 9.3 9.3 0 0 1-1.6-5.6 9.8 9.8 0 0 1 1.7-5.6 11.5 11.5 0 0 1 5-3.8 20.4 20.4 0 0 1 7.7-1.3 18.3 18.3 0 0 1 6.1.9 14.5 14.5 0 0 1 4.3 2.3 10 10 0 0 1 2.5 3.1 7.5 7.5 0 0 1 .8 3.1 3.5 3.5 0 0 1-1 2.5 3.4 3.4 0 0 1-2.5 1.1 2.4 2.4 0 0 1-2-.7 7 7 0 0 1-1.5-2.2 9.1 9.1 0 0 0-2.5-3.4 7.6 7.6 0 0 0-4.7-1.2 8.3 8.3 0 0 0-4.9 1.3 3.8 3.8 0 0 0-1.8 3.2 3.4 3.4 0 0 0 .6 2 4.7 4.7 0 0 0 1.7 1.4 10.2 10.2 0 0 0 2.2.9l3.7 1a60.7 60.7 0 0 1 5.9 1.7 18.9 18.9 0 0 1 4.5 2.2 10.2 10.2 0 0 1 2.9 3.3 10.4 10.4 0 0 1 1 4.9 12.5 12.5 0 0 1-1.9 6.2zm16.5 1.1a5.3 5.3 0 0 1-1.1 3.6 3.7 3.7 0 0 1-2.9 1.2 3.6 3.6 0 0 1-2.8-1.2 5.2 5.2 0 0 1-1.1-3.5V102a4.9 4.9 0 0 1 1.1-3.5 3.5 3.5 0 0 1 2.8-1.2 3.9 3.9 0 0 1 2.9 1.2 5.3 5.3 0 0 1 1.1 3.6zm38.9-1a9.8 9.8 0 0 1-4.5 3.8 15.6 15.6 0 0 1-4 1 41 41 0 0 1-5.3.3h-11.8a5 5 0 0 1-3.6-1.1 5.3 5.3 0 0 1-1.1-3.6v-28.9a5.5 5.5 0 0 1 1.1-3.7 5 5 0 0 1 3.6-1.1h12.5a34.3 34.3 0 0 1 4.8.3 10.3 10.3 0 0 1 3.6 1.3 8 8 0 0 1 2.4 2.1 9 9 0 0 1 2.1 6c0 3.9-1.9 6.7-5.8 8.5 5.1 1.6 7.6 4.7 7.6 9.4a9.7 9.7 0 0 1-1.6 5.7z" fill="url(#d)"/><path d="M108.3 164.7a9.2 9.2 0 0 0-5.5-1.6 12.4 12.4 0 0 0-2.7.3 7.9 7.9 0 0 0-2.3.9 4.4 4.4 0 0 0-1.6 1.7 5.3 5.3 0 0 0-.6 2.6 3.2 3.2 0 0 0 .9 2.4 7.6 7.6 0 0 0 2.3 1.5 25.8 25.8 0 0 0 3.3 1l3.8.8 3.8 1.1a16.8 16.8 0 0 1 3.3 1.6 7.1 7.1 0 0 1 2.3 2.6 8.2 8.2 0 0 1 .9 4 8.7 8.7 0 0 1-1.1 4.4 10.4 10.4 0 0 1-2.9 3 13 13 0 0 1-4 1.7 22.8 22.8 0 0 1-4.4.5 17 17 0 0 1-5.1-.7 11.8 11.8 0 0 1-4.2-2.1 10 10 0 0 1-2.9-3.5 11.3 11.3 0 0 1-1.1-5.1h4.1a7.5 7.5 0 0 0 .8 3.5 6.1 6.1 0 0 0 2.1 2.4 10.3 10.3 0 0 0 3 1.4 13.4 13.4 0 0 0 3.5.5 14.3 14.3 0 0 0 2.9-.3 8.8 8.8 0 0 0 2.6-.9 4.7 4.7 0 0 0 1.9-1.8 5.2 5.2 0 0 0 .7-2.9 4 4 0 0 0-.9-2.7 6.6 6.6 0 0 0-2.3-1.7 25.5 25.5 0 0 0-3.3-1.1l-3.8-.8-3.8-1a16.6 16.6 0 0 1-3.3-1.5 5.9 5.9 0 0 1-2.3-2.4 7 7 0 0 1-.9-3.7 8.3 8.3 0 0 1 3.6-7.1 11.4 11.4 0 0 1 3.7-1.7 15.4 15.4 0 0 1 4.3-.6 16.5 16.5 0 0 1 4.6.6 10 10 0 0 1 3.7 1.9 8 8 0 0 1 2.5 3.2 10.8 10.8 0 0 1 1 4.6h-4c-.4-2.3-1.2-4-2.6-5zM139.7 192.5L135 174h-.1l-4.7 18.5h-4.1l-7.5-23.2h4.2l5.3 19h.1l4.7-19h4.2l4.9 19h.1l5.2-19h4l-7.4 23.2zM155.1 165v-4.7h3.8v4.7zm3.8 4.2v23.3h-3.8v-23.3zM167.7 187.3a4.7 4.7 0 0 0 1.4 1.4 6.8 6.8 0 0 0 2 .7 8.6 8.6 0 0 0 2.3.2 12.8 12.8 0 0 0 1.9-.1 7.8 7.8 0 0 0 1.8-.5 3 3 0 0 0 1.4-1.1 2.7 2.7 0 0 0 .5-1.8 2.8 2.8 0 0 0-1.1-2.3 10.3 10.3 0 0 0-2.8-1.2l-3.7-.9a22.6 22.6 0 0 1-3.7-1.1 7.2 7.2 0 0 1-2.8-2 4.8 4.8 0 0 1-1.1-3.5 5.6 5.6 0 0 1 .8-3 8 8 0 0 1 2-2.1 11.8 11.8 0 0 1 2.8-1.2 11 11 0 0 1 3.1-.4 20.2 20.2 0 0 1 3.6.3 7.9 7.9 0 0 1 3 1.2 5.6 5.6 0 0 1 2 2.3 8.6 8.6 0 0 1 .9 3.5h-3.8a4.7 4.7 0 0 0-.6-1.9 3.7 3.7 0 0 0-1.3-1.2 8.7 8.7 0 0 0-1.7-.7 11 11 0 0 0-1.9-.2 9.2 9.2 0 0 0-1.7.1 4.3 4.3 0 0 0-1.6.5 2.7 2.7 0 0 0-1.2.9 2.5 2.5 0 0 0-.5 1.5 1.9 1.9 0 0 0 .7 1.6 7.8 7.8 0 0 0 1.8 1.1 13.7 13.7 0 0 0 2.4.7l2.7.6a22.9 22.9 0 0 1 2.8.8 9 9 0 0 1 2.4 1.2 5.2 5.2 0 0 1 1.7 1.9 6.1 6.1 0 0 1 .7 2.8 6.3 6.3 0 0 1-.9 3.5 8.4 8.4 0 0 1-2.3 2.3 8.2 8.2 0 0 1-3.2 1.2 21.6 21.6 0 0 1-3.5.3 15 15 0 0 1-3.7-.4 9.7 9.7 0 0 1-3.1-1.3 7.3 7.3 0 0 1-2.2-2.4 9.6 9.6 0 0 1-.9-3.7h3.8a6.1 6.1 0 0 0 .8 2.4zM190.2 187.3a4.7 4.7 0 0 0 1.4 1.4 6.8 6.8 0 0 0 2 .7 8.6 8.6 0 0 0 2.3.2 12.8 12.8 0 0 0 1.9-.1 7.8 7.8 0 0 0 1.8-.5 3 3 0 0 0 1.4-1.1 2.7 2.7 0 0 0 .5-1.8 2.8 2.8 0 0 0-1.1-2.3 10.3 10.3 0 0 0-2.8-1.2l-3.7-.9a22.6 22.6 0 0 1-3.7-1.1 7.2 7.2 0 0 1-2.8-2 4.8 4.8 0 0 1-1.1-3.5 5.6 5.6 0 0 1 .8-3 8 8 0 0 1 2-2.1 11.8 11.8 0 0 1 2.8-1.2 11 11 0 0 1 3.1-.4 20.2 20.2 0 0 1 3.6.3 7.9 7.9 0 0 1 3 1.2 5.6 5.6 0 0 1 2 2.3 8.6 8.6 0 0 1 .9 3.5h-3.8a4.7 4.7 0 0 0-.6-1.9 3.7 3.7 0 0 0-1.3-1.2 8.7 8.7 0 0 0-1.7-.7 11 11 0 0 0-1.9-.2 9.2 9.2 0 0 0-1.7.1 4.3 4.3 0 0 0-1.6.5 2.7 2.7 0 0 0-1.2.9 2.5 2.5 0 0 0-.5 1.5 1.9 1.9 0 0 0 .7 1.6 7.8 7.8 0 0 0 1.8 1.1 13.7 13.7 0 0 0 2.4.7l2.7.6a22.9 22.9 0 0 1 2.8.8 9 9 0 0 1 2.4 1.2 5.2 5.2 0 0 1 1.7 1.9 6.1 6.1 0 0 1 .7 2.8 6.3 6.3 0 0 1-.9 3.5 8.4 8.4 0 0 1-2.3 2.3 8.2 8.2 0 0 1-3.2 1.2 21.6 21.6 0 0 1-3.5.3 15 15 0 0 1-3.7-.4 9.7 9.7 0 0 1-3.1-1.3 7.3 7.3 0 0 1-2.2-2.4 9.6 9.6 0 0 1-.9-3.7h3.8a6.1 6.1 0 0 0 .8 2.4zM227.4 160.3v32.2h-4.2v-32.1h4.2zM237.5 169.2v3.7h.1a8 8 0 0 1 7.6-4.2 10.4 10.4 0 0 1 3.8.6 6.4 6.4 0 0 1 2.5 1.8 6.2 6.2 0 0 1 1.3 2.7 12.2 12.2 0 0 1 .4 3.4v15.3h-3.8v-15.8a4.4 4.4 0 0 0-1.3-3.4 4.8 4.8 0 0 0-3.5-1.3 8.5 8.5 0 0 0-3 .5 5.7 5.7 0 0 0-2.1 1.5 6.5 6.5 0 0 0-1.3 2.3 9.3 9.3 0 0 0-.4 2.9v13.3H234v-23.3zM261.9 187.3a4.7 4.7 0 0 0 1.4 1.4 6.8 6.8 0 0 0 2 .7 8.6 8.6 0 0 0 2.3.2 12.8 12.8 0 0 0 1.9-.1 7.8 7.8 0 0 0 1.8-.5 3 3 0 0 0 1.4-1.1 2.7 2.7 0 0 0 .5-1.8 2.8 2.8 0 0 0-1.1-2.3 10.3 10.3 0 0 0-2.8-1.2l-3.7-.9a22.6 22.6 0 0 1-3.7-1.1 7.2 7.2 0 0 1-2.8-2 4.8 4.8 0 0 1-1.1-3.5 5.6 5.6 0 0 1 .8-3 8 8 0 0 1 2-2.1 11.8 11.8 0 0 1 2.8-1.2 11 11 0 0 1 3.1-.4 22.2 22.2 0 0 1 3.7.3 7.9 7.9 0 0 1 3 1.2 6.7 6.7 0 0 1 2.1 2.3 8.6 8.6 0 0 1 .9 3.5h-3.8a4.7 4.7 0 0 0-.6-1.9 3.7 3.7 0 0 0-1.3-1.2 8.7 8.7 0 0 0-1.7-.7 11 11 0 0 0-1.9-.2 9.2 9.2 0 0 0-1.7.1 4.3 4.3 0 0 0-1.6.5 2.7 2.7 0 0 0-1.2.9 2.5 2.5 0 0 0-.5 1.5 1.9 1.9 0 0 0 .7 1.6 7.8 7.8 0 0 0 1.8 1.1 13.7 13.7 0 0 0 2.4.7l2.7.6a22.9 22.9 0 0 1 2.8.8 9 9 0 0 1 2.4 1.2 5.2 5.2 0 0 1 1.7 1.9 6.1 6.1 0 0 1 .7 2.8 6.3 6.3 0 0 1-.9 3.5 8.4 8.4 0 0 1-2.3 2.3 8.2 8.2 0 0 1-3.2 1.2 21.6 21.6 0 0 1-3.5.3 15 15 0 0 1-3.7-.4 9.7 9.7 0 0 1-3.1-1.3 7.3 7.3 0 0 1-2.2-2.4 9.6 9.6 0 0 1-.9-3.7h3.8a4 4 0 0 0 .6 2.4zM291.4 169.2v3.4h-4.6V187a3.4 3.4 0 0 0 .1 1.1 1 1 0 0 0 .4.6c.2.2.5.2.9.3l1.5.1h1.8v3.4h-2.9a16.9 16.9 0 0 1-2.5-.2 3.8 3.8 0 0 1-1.7-.7 4 4 0 0 1-1-1.5 9.3 9.3 0 0 1-.3-2.6v-14.8h-4v-3.4h4v-7h3.8v7h4.5zM295.9 165v-4.7h3.8v4.7zm3.8 4.2v23.3h-3.8v-23.3zM315.6 169.2v3.4H311V187a3.4 3.4 0 0 0 .1 1.1 1 1 0 0 0 .4.6c.2.2.5.2.9.3l1.5.1h1.8v3.4h-2.9a16.9 16.9 0 0 1-2.5-.2 3.8 3.8 0 0 1-1.7-.7 4 4 0 0 1-1-1.5 9.3 9.3 0 0 1-.3-2.6v-14.8h-4v-3.4h4v-7h3.8v7h4.5zM335.5 192.5v-3.7h-.1a8 8 0 0 1-3.1 3.2 9 9 0 0 1-4.5 1 10.4 10.4 0 0 1-3.8-.6 7.4 7.4 0 0 1-2.5-1.7 5 5 0 0 1-1.3-2.7 12.2 12.2 0 0 1-.4-3.4v-15.3h3.8v15.8a4.4 4.4 0 0 0 1.3 3.4 4.8 4.8 0 0 0 3.5 1.3 8.5 8.5 0 0 0 3-.5 5.7 5.7 0 0 0 2.1-1.5 6.5 6.5 0 0 0 1.3-2.3 9.3 9.3 0 0 0 .4-2.9v-13.1h3.8v23zM354.8 169.2v3.4h-4.6V187a3.4 3.4 0 0 0 .1 1.1 1 1 0 0 0 .4.6c.2.2.5.2.9.3l1.5.1h1.8v3.4H352a16.9 16.9 0 0 1-2.5-.2 3.8 3.8 0 0 1-1.7-.7 4 4 0 0 1-1-1.5 9.3 9.3 0 0 1-.3-2.6v-14.8h-4v-3.4h4v-7h3.8v7h4.5zM375.5 191a10.6 10.6 0 0 1-6.6 2 11.4 11.4 0 0 1-4.8-.9 8.6 8.6 0 0 1-3.4-2.5 12.2 12.2 0 0 1-2.1-3.9 18.6 18.6 0 0 1-.8-4.9 15.3 15.3 0 0 1 .8-4.9 10.5 10.5 0 0 1 2.3-3.8 9.8 9.8 0 0 1 3.5-2.5 10.5 10.5 0 0 1 4.4-.9 8.8 8.8 0 0 1 5.1 1.3 9.5 9.5 0 0 1 3.3 3.3 14.3 14.3 0 0 1 1.7 4.3 23.5 23.5 0 0 1 .4 4.5h-17.4a9.3 9.3 0 0 0 .4 2.9 7 7 0 0 0 1.3 2.4 6.6 6.6 0 0 0 2.3 1.7 8.1 8.1 0 0 0 3.3.6 7.2 7.2 0 0 0 4-1.1 5.6 5.6 0 0 0 2-3.4h3.8a10.6 10.6 0 0 1-3.5 5.8zm-1-15a6 6 0 0 0-1.4-2.1 7.7 7.7 0 0 0-2.1-1.4 7.5 7.5 0 0 0-2.6-.5 7.6 7.6 0 0 0-2.7.5 4.8 4.8 0 0 0-2 1.4 5.7 5.7 0 0 0-1.3 2.1 10.2 10.2 0 0 0-.6 2.5h13.3a5.7 5.7 0 0 0-.6-2.5zM395.1 176a10.7 10.7 0 0 1 2.2-3.9 9.5 9.5 0 0 1 3.6-2.6 13.8 13.8 0 0 1 9.8 0 9.2 9.2 0 0 1 3.5 2.6 12.4 12.4 0 0 1 2.2 3.9 16.8 16.8 0 0 1 0 9.6 9.5 9.5 0 0 1-2.2 3.8 11.4 11.4 0 0 1-3.5 2.6 12.3 12.3 0 0 1-4.9.9 13 13 0 0 1-4.9-.9 10.4 10.4 0 0 1-3.6-2.6 11.1 11.1 0 0 1-2.2-3.8 15 15 0 0 1-.7-4.8 18.5 18.5 0 0 1 .7-4.8zm4 8.6a8.7 8.7 0 0 0 1.5 2.7 7.6 7.6 0 0 0 2.3 1.7 6.8 6.8 0 0 0 5.6 0 7 7 0 0 0 3.8-4.4 12.3 12.3 0 0 0 0-7.6 10.6 10.6 0 0 0-1.5-2.8 6.3 6.3 0 0 0-2.3-1.7 6.8 6.8 0 0 0-5.6 0 6.6 6.6 0 0 0-2.3 1.7 6.9 6.9 0 0 0-1.5 2.8 11.2 11.2 0 0 0-.6 3.8 10.8 10.8 0 0 0 .6 3.8zM419.2 172.6v-3.4h3.9v-3.5a5.4 5.4 0 0 1 1.6-4.3 6.9 6.9 0 0 1 4.8-1.5 4.9 4.9 0 0 1 1.2.1 10.4 10.4 0 0 1 1.2.3v3.3a3.6 3.6 0 0 0-1.1-.2l-1.1-.1a4.5 4.5 0 0 0-2.2.5 2.6 2.6 0 0 0-.8 2.1v3.3h4.5v3.4h-4.3v19.9h-3.8v-19.9zM103.8 201.3h2.2l2.4.1 2.2.3a5.4 5.4 0 0 1 1.7.7 9.5 9.5 0 0 1 2.7 2.6 7.6 7.6 0 0 1 1.1 4.1 7.8 7.8 0 0 1-1.2 4.4 7.3 7.3 0 0 1-3.6 2.8v.1a7 7 0 0 1 4.5 2.7 8.5 8.5 0 0 1 1.6 5 9.7 9.7 0 0 1-.6 3.4 7 7 0 0 1-1.9 2.9 9 9 0 0 1-3.1 2.1 10.8 10.8 0 0 1-4.2.8H92.1v-32.1h11.7zm1.2 13.8c2.4 0 4.2-.4 5.3-1.3a4.5 4.5 0 0 0 1.6-3.8 6.8 6.8 0 0 0-.5-2.7 3.6 3.6 0 0 0-1.5-1.5 5.2 5.2 0 0 0-2.2-.7 21.1 21.1 0 0 0-2.6-.2h-8.6v10.2zm2.1 14.7a6 6 0 0 0 4.4-1.5 5.4 5.4 0 0 0 1.6-4.2 5.3 5.3 0 0 0-.6-2.6 4.1 4.1 0 0 0-1.6-1.6 7.3 7.3 0 0 0-2.2-.9 11 11 0 0 0-2.6-.2h-9.8v11.1h10.8zM122.6 206v-4.7h3.8v4.7zm3.8 4.2v23.3h-3.8v-23.3zM131.8 217a10.7 10.7 0 0 1 2.2-3.9 9.5 9.5 0 0 1 3.6-2.6 13.8 13.8 0 0 1 9.8 0 9.2 9.2 0 0 1 3.5 2.6 10.7 10.7 0 0 1 2.2 3.9 16.8 16.8 0 0 1 0 9.6 9.5 9.5 0 0 1-2.2 3.8 10 10 0 0 1-3.5 2.6 12.3 12.3 0 0 1-4.9.9 13 13 0 0 1-4.9-.9 10.4 10.4 0 0 1-3.6-2.6 11.1 11.1 0 0 1-2.2-3.8 16.8 16.8 0 0 1 0-9.6zm3.9 8.6a8.7 8.7 0 0 0 1.5 2.7 7.6 7.6 0 0 0 2.3 1.7 6.8 6.8 0 0 0 5.6 0 7 7 0 0 0 3.8-4.4 12.3 12.3 0 0 0 0-7.6 10.6 10.6 0 0 0-1.5-2.8 6.3 6.3 0 0 0-2.3-1.7 6.8 6.8 0 0 0-5.6 0 6.6 6.6 0 0 0-2.3 1.7 6.9 6.9 0 0 0-1.5 2.8 11.2 11.2 0 0 0-.6 3.8 14.4 14.4 0 0 0 .6 3.8zM158.4 206v-4.7h3.8v4.7zm3.8 4.2v23.3h-3.8v-23.3zM171.8 210.2v3.7h.1a8 8 0 0 1 7.6-4.2 10.4 10.4 0 0 1 3.8.6 6.4 6.4 0 0 1 2.5 1.8 6.2 6.2 0 0 1 1.3 2.7 12.2 12.2 0 0 1 .4 3.4v15.3h-3.8v-15.8a4.4 4.4 0 0 0-1.3-3.4 4.8 4.8 0 0 0-3.5-1.3 8.5 8.5 0 0 0-3 .5 5.7 5.7 0 0 0-2.1 1.5 6.5 6.5 0 0 0-1.3 2.3 9.3 9.3 0 0 0-.4 2.9v13.1h-3.8V210h3.5zM190.8 213.6v-3.4h3.9v-3.5a5.4 5.4 0 0 1 1.6-4.3 6.9 6.9 0 0 1 4.8-1.5 4.9 4.9 0 0 1 1.2.1 10.4 10.4 0 0 1 1.2.3v3.3a3.6 3.6 0 0 0-1.1-.2l-1.1-.1a4.5 4.5 0 0 0-2.2.5 2.6 2.6 0 0 0-.8 2.1v3.3h4.5v3.4h-4.5v19.9h-3.8v-19.9zM206 217a10.7 10.7 0 0 1 2.2-3.9 9.5 9.5 0 0 1 3.6-2.6 13.8 13.8 0 0 1 9.8 0 9.2 9.2 0 0 1 3.5 2.6 10.7 10.7 0 0 1 2.2 3.9 16.8 16.8 0 0 1 0 9.6 9.5 9.5 0 0 1-2.2 3.8 10 10 0 0 1-3.5 2.6 12.3 12.3 0 0 1-4.9.9 13 13 0 0 1-4.9-.9 10.4 10.4 0 0 1-3.6-2.6 11.1 11.1 0 0 1-2.2-3.8 16.8 16.8 0 0 1 0-9.6zm3.9 8.6a8.7 8.7 0 0 0 1.5 2.7 7.6 7.6 0 0 0 2.3 1.7 6.8 6.8 0 0 0 5.6 0 7 7 0 0 0 3.8-4.4 12.3 12.3 0 0 0 0-7.6 10.6 10.6 0 0 0-1.5-2.8 6.3 6.3 0 0 0-2.3-1.7 6.8 6.8 0 0 0-5.6 0 6.6 6.6 0 0 0-2.3 1.7 6.9 6.9 0 0 0-1.5 2.8 12.3 12.3 0 0 0 0 7.6zM235.8 210.2v4.9h.1a10.5 10.5 0 0 1 3.4-4.2 9 9 0 0 1 5.1-1.3v4.1a11.4 11.4 0 0 0-3.9.6 5.5 5.5 0 0 0-2.6 1.8 7.1 7.1 0 0 0-1.4 2.9 16 16 0 0 0-.4 4v10.3h-3.8V210h3.5zM250.9 210.2v3.4h.1a8.5 8.5 0 0 1 7.5-4 8.6 8.6 0 0 1 3.9.9 5 5 0 0 1 2.5 3.1 7.8 7.8 0 0 1 3.1-2.9 8.7 8.7 0 0 1 4.2-1 10.8 10.8 0 0 1 3.2.4 7.7 7.7 0 0 1 2.4 1.2 5 5 0 0 1 1.6 2.1 7.5 7.5 0 0 1 .6 3.1v17.1h-3.8v-15.3a12.3 12.3 0 0 0-.2-2 3 3 0 0 0-.7-1.6 3.1 3.1 0 0 0-1.4-1.1 5 5 0 0 0-2.3-.4 5.7 5.7 0 0 0-4.4 1.6 5.7 5.7 0 0 0-1.6 4.3v14.5h-3.8v-15.3a13.6 13.6 0 0 0-.2-2.1 3.9 3.9 0 0 0-.7-1.6 3.5 3.5 0 0 0-1.3-1.1 4.6 4.6 0 0 0-2.1-.4 5.4 5.4 0 0 0-2.9.7 7.7 7.7 0 0 0-1.9 1.6 5.6 5.6 0 0 0-1.1 2 6 6 0 0 0-.3 1.7v14.5h-3.8v-23.3h3.4zM303.5 233.9a3.2 3.2 0 0 1-2.3-.8 3.7 3.7 0 0 1-.9-2.7 8 8 0 0 1-3.7 2.7 11.2 11.2 0 0 1-4.5.8 14.5 14.5 0 0 1-3-.3 8 8 0 0 1-2.5-1.1 4.7 4.7 0 0 1-1.7-2 6.7 6.7 0 0 1-.6-3 6 6 0 0 1 .7-3.2 5 5 0 0 1 1.8-2 9.7 9.7 0 0 1 2.5-1.2 24.6 24.6 0 0 1 2.9-.7l3-.5a15.8 15.8 0 0 0 2.5-.5 4 4 0 0 0 1.7-.9 2.1 2.1 0 0 0 .6-1.6 4 4 0 0 0-.5-2 3.5 3.5 0 0 0-1.2-1.2 3.4 3.4 0 0 0-1.7-.5 10.9 10.9 0 0 0-1.8-.1 8.6 8.6 0 0 0-4.1.9 4 4 0 0 0-1.8 3.5h-3.8a10 10 0 0 1 .9-3.7 6.4 6.4 0 0 1 2.2-2.4 7.8 7.8 0 0 1 3.1-1.3 15 15 0 0 1 3.7-.4l3.1.2a8.4 8.4 0 0 1 2.8.9 5.5 5.5 0 0 1 2 2 6.2 6.2 0 0 1 .8 3.3v12a8.8 8.8 0 0 0 .2 2c.1.4.5.6 1.1.6a7.4 7.4 0 0 0 1.2-.2v3a8.5 8.5 0 0 1-2.7.4zm-5.3-11.7a20 20 0 0 1-2.4.4 23.4 23.4 0 0 0-2.6.4 7.8 7.8 0 0 0-2.3.7 4.3 4.3 0 0 0-1.7 1.3 4 4 0 0 0-.7 2.3 2.7 2.7 0 0 0 .4 1.6 5.2 5.2 0 0 0 1 1.1 3.5 3.5 0 0 0 1.4.6 9.1 9.1 0 0 0 4.9-.3 6.8 6.8 0 0 0 2.2-1.3 5.2 5.2 0 0 0 1.3-1.7 3.8 3.8 0 0 0 .4-1.7v-3.9a16.7 16.7 0 0 1-1.9.5zM319.8 210.2v3.4h-4.6V228a3.4 3.4 0 0 0 .1 1.1 1 1 0 0 0 .4.6c.2.2.5.2.9.3l1.5.1h1.8v3.4h-3a16.9 16.9 0 0 1-2.5-.2 3.8 3.8 0 0 1-1.7-.7 4 4 0 0 1-1-1.5 9.3 9.3 0 0 1-.3-2.6v-14.8h-4v-3.4h4v-7h3.8v7h4.6zM324.3 206v-4.7h3.8v4.7zm3.8 4.2v23.3h-3.8v-23.3zM348 214.2a5.9 5.9 0 0 0-3.9-1.2 7.5 7.5 0 0 0-3.5.8 6 6 0 0 0-2.2 2 6.9 6.9 0 0 0-1.2 2.9 18.6 18.6 0 0 0-.4 3.4 11.7 11.7 0 0 0 .4 3.2 11 11 0 0 0 1.2 2.7 5.5 5.5 0 0 0 2.1 1.9 6.2 6.2 0 0 0 3.1.7 6 6 0 0 0 4.4-1.5 7 7 0 0 0 2-4.2h3.9a10.9 10.9 0 0 1-3.2 6.7c-1.7 1.6-4.1 2.3-7 2.3a11.6 11.6 0 0 1-4.7-.9 9.5 9.5 0 0 1-3.4-2.4 11.7 11.7 0 0 1-2.1-3.8 15 15 0 0 1-.7-4.8 15.7 15.7 0 0 1 .7-4.9 11.8 11.8 0 0 1 2.1-4 11.3 11.3 0 0 1 3.4-2.7 12 12 0 0 1 4.8-1 14.4 14.4 0 0 1 3.7.5 8.1 8.1 0 0 1 3.1 1.5 8.8 8.8 0 0 1 2.2 2.5 9.5 9.5 0 0 1 1.1 3.6h-4a7.2 7.2 0 0 0-1.9-3.3zM361.1 228.3a4.7 4.7 0 0 0 1.4 1.4 6.8 6.8 0 0 0 2 .7 8.6 8.6 0 0 0 2.3.2 12.8 12.8 0 0 0 1.9-.1 7.8 7.8 0 0 0 1.8-.5 3 3 0 0 0 1.4-1.1 2.7 2.7 0 0 0 .5-1.8 2.8 2.8 0 0 0-1.1-2.3 10.3 10.3 0 0 0-2.8-1.2l-3.7-.9a22.6 22.6 0 0 1-3.7-1.1 7.2 7.2 0 0 1-2.8-2 4.8 4.8 0 0 1-1.1-3.5 5.6 5.6 0 0 1 .8-3 8 8 0 0 1 2-2.1 11.8 11.8 0 0 1 2.8-1.2 11 11 0 0 1 3.1-.4 22.2 22.2 0 0 1 3.7.3 7.9 7.9 0 0 1 3 1.2 6.7 6.7 0 0 1 2.1 2.3 8.6 8.6 0 0 1 .9 3.5h-3.8a4.7 4.7 0 0 0-.6-1.9 3.7 3.7 0 0 0-1.3-1.2 8.7 8.7 0 0 0-1.7-.7 11 11 0 0 0-1.9-.2 9.2 9.2 0 0 0-1.7.1 4.3 4.3 0 0 0-1.6.5 2.7 2.7 0 0 0-1.2.9 2.5 2.5 0 0 0-.5 1.5 1.9 1.9 0 0 0 .7 1.6 7.8 7.8 0 0 0 1.8 1.1 13.7 13.7 0 0 0 2.4.7l2.7.6a22.9 22.9 0 0 1 2.8.8 9 9 0 0 1 2.4 1.2 5.2 5.2 0 0 1 1.7 1.9 6.1 6.1 0 0 1 .7 2.8 6.3 6.3 0 0 1-.9 3.5 8.4 8.4 0 0 1-2.3 2.3 8.2 8.2 0 0 1-3.2 1.2 21.6 21.6 0 0 1-3.5.3 15 15 0 0 1-3.7-.4 9.7 9.7 0 0 1-3.1-1.3 7.3 7.3 0 0 1-2.2-2.4 9.6 9.6 0 0 1-.9-3.7h3.8a4 4 0 0 0 .6 2.4z"/></g></g></svg>