<?xml version="1.0" encoding="UTF-8" standalone="no"?>
<svg
   xmlns:dc="http://purl.org/dc/elements/1.1/"
   xmlns:cc="http://creativecommons.org/ns#"
   xmlns:rdf="http://www.w3.org/1999/02/22-rdf-syntax-ns#"
   xmlns:svg="http://www.w3.org/2000/svg"
   xmlns="http://www.w3.org/2000/svg"
   xmlns:xlink="http://www.w3.org/1999/xlink"
   xmlns:sodipodi="http://sodipodi.sourceforge.net/DTD/sodipodi-0.dtd"
   xmlns:inkscape="http://www.inkscape.org/namespaces/inkscape"
   inkscape:version="1.0 (4035a4f, 2020-05-01)"
   height="152.89999"
   width="199"
   sodipodi:docname="SIB_logo.svg"
   id="svg859"
   version="1.1"
   viewBox="0 0 199 152.9">
  <metadata
     id="metadata863">
    <rdf:RDF>
      <cc:Work
         rdf:about="">
        <dc:format>image/svg+xml</dc:format>
        <dc:type
           rdf:resource="http://purl.org/dc/dcmitype/StillImage" />
        <dc:title></dc:title>
      </cc:Work>
    </rdf:RDF>
  </metadata>
  <sodipodi:namedview
     inkscape:current-layer="g857"
     inkscape:window-maximized="0"
     inkscape:window-y="25"
     inkscape:window-x="0"
     inkscape:cy="122.20407"
     inkscape:cx="-87.957164"
     inkscape:zoom="1.6485298"
     fit-margin-bottom="0"
     fit-margin-right="0"
     fit-margin-left="0"
     fit-margin-top="0"
     inkscape:snap-page="false"
     showgrid="false"
     id="namedview861"
     inkscape:window-height="870"
     inkscape:window-width="1624"
     inkscape:pageshadow="2"
     inkscape:pageopacity="0"
     guidetolerance="10"
     gridtolerance="10"
     objecttolerance="10"
     borderopacity="1"
     bordercolor="#666666"
     pagecolor="#ffffff" />
  <defs
     id="defs841">
    <radialGradient
       gradientUnits="userSpaceOnUse"
       gradientTransform="rotate(180,908.5,-11.5)"
       r="53.700001"
       cy="-75"
       cx="1744.9"
       id="a">
      <stop
         id="stop833"
         stop-color="#f69679"
         offset="0" />
      <stop
         id="stop835"
         stop-color="#ed1c24"
         offset="1" />
    </radialGradient>
    <radialGradient
       xlink:href="#a"
       r="53.700001"
       cy="-75"
       cx="1744.9"
       id="b" />
    <radialGradient
       xlink:href="#a"
       r="53.700001"
       cy="-75"
       cx="1744.9"
       id="c" />
    <radialGradient
       xlink:href="#a"
       r="53.700001"
       cy="-75"
       cx="1744.9"
       id="d" />
    <radialGradient
       r="53.700001"
       cy="-75"
       cx="1744.9"
       gradientTransform="rotate(180,908.5,-11.5)"
       gradientUnits="userSpaceOnUse"
       id="radialGradient869"
       xlink:href="#a"
       inkscape:collect="always" />
  </defs>
  <g
     transform="translate(-465.26306,35.584129)"
     id="g857"
     data-name="Layer 2">
    <g
       id="g877">
      <g
         data-name="chosen finb"
         id="g855"
         transform="translate(465.26306,-35.584129)">
        <path
           d="M 14.3,0 A 14.3,14.3 0 0 0 0,14.3 v 124.3 a 14.3,14.3 0 0 0 14.3,14.3 H 184.7 A 14.3,14.3 0 0 0 199,138.6 V 14.3 A 14.3,14.3 0 0 0 184.7,0 Z"
           fill="#ffffff"
           id="path843" />
        <path
           d="m 62.6,51.7 a 9.4,9.4 0 0 1 7.1,-8.8 L 75.4,7.2 H 14.3 A 7.1,7.1 0 0 0 7.2,14.3 V 73.8 Z M 28,28.9 h 7.9 V 21 H 43 v 7.9 h 7.9 V 36 H 43 v 7.9 H 35.9 V 36 H 28 Z"
           fill="url(#a)"
           id="path845"
           style="fill:url(#radialGradient869)" />
        <path
           d="m 164.4,113.7 a 4.2,4.2 0 0 0 2.4,-2.1 5.2,5.2 0 0 0 0.7,-2.5 4,4 0 0 0 -2.1,-3.9 16.5,16.5 0 0 0 -6.3,-1 h -6.3 v 10 h 7.1 a 16.4,16.4 0 0 0 4.5,-0.5 z"
           fill="url(#b)"
           id="path847"
           style="fill:url(#b)" />
        <path
           d="m 167,121.1 c -1.4,-0.9 -3.4,-1.3 -6.1,-1.3 h -8.1 V 131 h 8.4 c 5.3,0 7.9,-1.9 7.9,-5.7 a 4.5,4.5 0 0 0 -2.1,-4.2 z"
           fill="url(#c)"
           id="path849"
           style="fill:url(#c)" />
        <path
           d="M 184.7,7.2 H 83.3 l -5.9,36.9 a 9.5,9.5 0 0 1 4.3,8 v 0.5 l 44.9,23.2 a 9.4,9.4 0 0 1 5.9,-2.1 9.6,9.6 0 1 1 -9.6,9.6 V 82.7 L 78.1,59.5 a 9.5,9.5 0 0 1 -6,2.1 9.6,9.6 0 0 1 -6.7,-2.7 L 7.1,82.2 v 56.4 a 7.1,7.1 0 0 0 7.1,7.1 h 170.4 a 7.1,7.1 0 0 0 7.1,-7.1 V 14.3 a 7,7 0 0 0 -7,-7.1 z m -64.8,124.4 a 12,12 0 0 1 -5.3,4.3 20.3,20.3 0 0 1 -8.2,1.6 19,19 0 0 1 -9.4,-2.1 13,13 0 0 1 -4.3,-4.1 9.2,9.2 0 0 1 -1.6,-5 3.3,3.3 0 0 1 1,-2.4 3.3,3.3 0 0 1 2.5,-1 3.2,3.2 0 0 1 2.1,0.8 5.8,5.8 0 0 1 1.5,2.3 18,18 0 0 0 1.6,3.1 6.8,6.8 0 0 0 2.4,2 9.3,9.3 0 0 0 4.1,0.8 8.9,8.9 0 0 0 5.6,-1.6 5,5 0 0 0 2.2,-4 4.1,4.1 0 0 0 -1.2,-3.1 7.5,7.5 0 0 0 -3,-1.8 41.3,41.3 0 0 0 -4.9,-1.3 29.2,29.2 0 0 1 -6.9,-2.3 11,11 0 0 1 -4.4,-3.5 9.3,9.3 0 0 1 -1.6,-5.6 9.8,9.8 0 0 1 1.7,-5.6 11.5,11.5 0 0 1 5,-3.8 20.4,20.4 0 0 1 7.7,-1.3 18.3,18.3 0 0 1 6.1,0.9 14.5,14.5 0 0 1 4.3,2.3 10,10 0 0 1 2.5,3.1 7.5,7.5 0 0 1 0.8,3.1 3.5,3.5 0 0 1 -1,2.5 3.4,3.4 0 0 1 -2.5,1.1 2.4,2.4 0 0 1 -2,-0.7 7,7 0 0 1 -1.5,-2.2 9.1,9.1 0 0 0 -2.5,-3.4 7.6,7.6 0 0 0 -4.7,-1.2 8.3,8.3 0 0 0 -4.9,1.3 3.8,3.8 0 0 0 -1.8,3.2 3.4,3.4 0 0 0 0.6,2 4.7,4.7 0 0 0 1.7,1.4 10.2,10.2 0 0 0 2.2,0.9 l 3.7,1 a 60.7,60.7 0 0 1 5.9,1.7 18.9,18.9 0 0 1 4.5,2.2 10.2,10.2 0 0 1 2.9,3.3 10.4,10.4 0 0 1 1,4.9 12.5,12.5 0 0 1 -1.9,6.2 z m 16.5,1.1 a 5.3,5.3 0 0 1 -1.1,3.6 3.7,3.7 0 0 1 -2.9,1.2 3.6,3.6 0 0 1 -2.8,-1.2 5.2,5.2 0 0 1 -1.1,-3.5 V 102 a 4.9,4.9 0 0 1 1.1,-3.5 3.5,3.5 0 0 1 2.8,-1.2 3.9,3.9 0 0 1 2.9,1.2 5.3,5.3 0 0 1 1.1,3.6 z m 38.9,-1 a 9.8,9.8 0 0 1 -4.5,3.8 15.6,15.6 0 0 1 -4,1 41,41 0 0 1 -5.3,0.3 h -11.8 a 5,5 0 0 1 -3.6,-1.1 5.3,5.3 0 0 1 -1.1,-3.6 v -28.9 a 5.5,5.5 0 0 1 1.1,-3.7 5,5 0 0 1 3.6,-1.1 h 12.5 a 34.3,34.3 0 0 1 4.8,0.3 10.3,10.3 0 0 1 3.6,1.3 8,8 0 0 1 2.4,2.1 9,9 0 0 1 2.1,6 c 0,3.9 -1.9,6.7 -5.8,8.5 5.1,1.6 7.6,4.7 7.6,9.4 a 9.7,9.7 0 0 1 -1.6,5.7 z"
           fill="url(#d)"
           id="path851"
           style="fill:url(#d)" />
      </g>
    </g>
  </g>
</svg>
